Coordinates
version=1
nRows=17
nColumns=38
inDegrees=no

Units are S.I. units (second, meters, Newtons, ...)
If the header above contains a line with 'inDegrees', this indicates whether rotational values are in degrees (yes) or radians (no).

endheader
time	pelvis_tilt	pelvis_list	pelvis_rotation	pelvis_tx	pelvis_ty	pelvis_tz	hip_flexion_r	hip_adduction_r	hip_rotation_r	knee_angle_r	ankle_angle_r	subtalar_angle_r	mtp_angle_r	hip_flexion_l	hip_adduction_l	hip_rotation_l	knee_angle_l	ankle_angle_l	subtalar_angle_l	mtp_angle_l	lumbar_extension	lumbar_bending	lumbar_rotation	arm_flex_r	arm_add_r	arm_rot_r	elbow_flex_r	pro_sup_r	wrist_flex_r	wrist_dev_r	arm_flex_l	arm_add_l	arm_rot_l	elbow_flex_l	pro_sup_l	wrist_flex_l	wrist_dev_l
44.55	-0.273782	1.17585	1.87014	0.666685	0.25811	0.927872	1.09096	-0.184009	0.0295034	1.06055	-0.362241	0	0	0.921747	-0.0823268	-0.239013	0.992237	-0.212397	0	0	-0.579403	0.150092	0.0444449	1.12428	-0.48987	1.5708	0.388313	0.00155383	0	0	-0.0720258	-0.0255858	-0.0995618	0.657434	1.5708	0	0
44.56	-0.27375	1.17953	1.86995	0.666807	0.258853	0.929389	1.08241	-0.183347	0.0273774	1.05517	-0.361308	0	0	0.91284	-0.0822652	-0.2404	0.985413	-0.210123	0	0	-0.576722	0.149832	0.0417881	1.11865	-0.486427	1.5708	0.388093	0.00449865	0	0	-0.0723316	-0.0254286	-0.101231	0.657747	1.5708	0	0
44.57	-0.273717	1.18297	1.86971	0.666945	0.259627	0.930923	1.07403	-0.182704	0.0252522	1.0498	-0.360472	0	0	0.903982	-0.0822818	-0.241855	0.978246	-0.208405	0	0	-0.573666	0.149324	0.0391306	1.11251	-0.483119	1.5708	0.388114	0.00793339	0	0	-0.072812	-0.0256364	-0.102377	0.65823	1.5708	0	0
44.58	-0.273347	1.18642	1.8691	0.667111	0.260448	0.932506	1.06548	-0.181924	0.023035	1.04404	-0.359679	0	0	0.89483	-0.0825468	-0.243451	0.970547	-0.207072	0	0	-0.570372	0.148765	0.0365774	1.10593	-0.480001	1.5708	0.388255	0.011381	0	0	-0.0732374	-0.0261429	-0.102889	0.658402	1.5708	0	0
44.59	-0.272535	1.18997	1.86808	0.667297	0.261319	0.934163	1.0566	-0.181069	0.0206003	1.03797	-0.359037	0	0	0.885333	-0.0830656	-0.245215	0.962388	-0.206069	0	0	-0.566979	0.14828	0.034316	1.0989	-0.477298	1.5708	0.388665	0.0144798	0	0	-0.0736134	-0.0268317	-0.102863	0.658581	1.5708	0	0
44.6	-0.271018	1.19356	1.86633	0.667483	0.262235	0.935892	1.04732	-0.179994	0.0178747	1.03171	-0.358174	0	0	0.875554	-0.0838224	-0.246976	0.953693	-0.205284	0	0	-0.563383	0.147926	0.0324227	1.09132	-0.474995	1.5708	0.389229	0.0163033	0	0	-0.0740994	-0.027443	-0.102754	0.658923	1.5708	0	0
44.61	-0.269755	1.19744	1.8647	0.667641	0.263223	0.937708	1.0375	-0.178974	0.0150288	1.0252	-0.357272	0	0	0.864948	-0.0843976	-0.248614	0.944264	-0.204516	0	0	-0.559873	0.147473	0.0308655	1.08333	-0.473093	1.5708	0.389844	0.0176841	0	0	-0.0744967	-0.0280634	-0.102524	0.659178	1.5708	0	0
44.62	-0.275013	1.20852	1.86812	0.667901	0.264553	0.9404	1.01821	-0.177744	0.011203	1.01649	-0.354754	0	0	0.843757	-0.0863201	-0.25401	0.932	-0.202003	0	0	-0.56488	0.14667	0.0300038	1.07655	-0.470527	1.5708	0.389346	0.0289572	0	0	-0.0743128	-0.0284778	-0.102863	0.660821	1.5708	0	0
44.63	-0.275561	1.21361	1.86778	0.66805	0.265686	0.942432	1.00656	-0.176784	0.00820894	1.00919	-0.354029	0	0	0.830433	-0.0868108	-0.256584	0.92085	-0.200439	0	0	-0.562245	0.145654	0.0287705	1.06785	-0.469073	1.5708	0.390126	0.0362593	0	0	-0.075233	-0.0287577	-0.103969	0.662073	1.5708	0	0
44.64	-0.275143	1.2178	1.8667	0.668173	0.266804	0.944385	0.995824	-0.17608	0.00490732	1.00174	-0.353286	0	0	0.818282	-0.0870588	-0.258698	0.909762	-0.199246	0	0	-0.558275	0.144766	0.0273452	1.0588	-0.467812	1.5708	0.391181	0.0438874	0	0	-0.0768917	-0.0293859	-0.104782	0.66422	1.5708	0	0
44.65	-0.274106	1.22183	1.86512	0.668282	0.267931	0.946346	0.984967	-0.175562	0.00113578	0.993782	-0.352655	0	0	0.806378	-0.0872014	-0.260345	0.898568	-0.198399	0	0	-0.553855	0.144009	0.026026	1.04956	-0.466708	1.5708	0.39202	0.0528368	0	0	-0.0790622	-0.0300598	-0.105717	0.66725	1.5708	0	0
44.66	-0.272254	1.22499	1.86277	0.668383	0.269047	0.948243	0.974994	-0.174987	-0.00249852	0.985606	-0.352433	0	0	0.795452	-0.0871965	-0.261571	0.887207	-0.197802	0	0	-0.548191	0.143205	0.0246368	1.04006	-0.46579	1.5708	0.39289	0.0611873	0	0	-0.0814666	-0.0307873	-0.106579	0.670302	1.5708	0	0
44.67	-0.26933	1.2277	1.85956	0.668451	0.270173	0.95012	0.965211	-0.174379	-0.00627426	0.976801	-0.352337	0	0	0.785164	-0.08714	-0.262285	0.87577	-0.197315	0	0	-0.541795	0.142474	0.0232473	1.03033	-0.465266	1.5708	0.39384	0.0685775	0	0	-0.0840422	-0.0313346	-0.108032	0.673501	1.5708	0	0
44.68	-0.265658	1.23074	1.85581	0.668507	0.271369	0.952048	0.954961	-0.173982	-0.0108885	0.968067	-0.352163	0	0	0.774605	-0.0873223	-0.262832	0.864416	-0.196838	0	0	-0.535424	0.141953	0.0218727	1.0204	-0.464917	1.5708	0.394325	0.0750221	0	0	-0.0867805	-0.0319592	-0.1098	0.67698	1.5708	0	0
44.69	-0.262111	1.23456	1.85215	0.668587	0.272655	0.954062	0.943483	-0.173347	-0.015396	0.958892	-0.351879	0	0	0.762921	-0.0877954	-0.263734	0.852605	-0.196351	0	0	-0.529513	0.141421	0.0206316	1.00995	-0.464501	1.5708	0.394063	0.0803273	0	0	-0.0894341	-0.0325291	-0.111995	0.680312	1.5708	0	0
44.7	-0.258863	1.23941	1.84849	0.668721	0.274072	0.95616	0.930883	-0.172301	-0.0201332	0.950016	-0.351428	0	0	0.749743	-0.0889308	-0.265637	0.840598	-0.195852	0	0	-0.524254	0.140922	0.0198621	0.998759	-0.464426	1.5708	0.394035	0.0838143	0	0	-0.0915652	-0.0333654	-0.113379	0.682553	1.5708	0	0
44.71	-0.25591	1.24405	1.84501	0.668837	0.275561	0.958229	0.918448	-0.171116	-0.0244678	0.941098	-0.350707	0	0	0.736472	-0.0898181	-0.267554	0.82829	-0.195299	0	0	-0.518483	0.140113	0.0193768	0.986992	-0.464913	1.5708	0.395199	0.0878546	0	0	-0.0931969	-0.0342492	-0.114418	0.683547	1.5708	0	0
